<svg width="146" height="79" viewBox="0 0 146 79" fill="none" xmlns="http://www.w3.org/2000/svg">
<path d="M142.031 40.503L127.582 38.5086L121.741 23.6268C120.204 19.6378 116.361 17.1831 111.596 17.1831H94.8412C93.4577 17.1831 92.2281 18.1036 92.0743 19.4844L86.5407 50.0151C86.2332 51.3959 85.1572 52.3164 83.7738 52.3164H10.2988C8.91542 52.3164 7.68571 53.2369 7.532 54.6177L5.99487 63.3627C5.68744 65.0503 7.07086 66.7379 8.76171 66.7379H14.7565C14.1417 73.335 18.7531 78.5513 25.3627 78.5513C31.9724 78.5513 38.5821 73.335 40.2729 66.7379H107.138C106.523 73.335 111.135 78.5513 117.744 78.5513C124.508 78.5513 130.964 73.335 132.655 66.7379H139.879C141.263 66.7379 142.492 65.8174 142.646 64.4366L145.874 46.1796C146.489 43.2646 144.798 40.8099 142.031 40.503ZM34.4318 65.664C33.817 69.3461 30.2816 72.4145 26.4387 72.4145C22.7496 72.4145 20.1365 69.3461 20.9051 65.664C21.5199 61.9819 25.0553 58.9135 28.8982 58.9135C32.5873 58.9135 35.2004 61.9819 34.4318 65.664ZM97.9154 38.0483L100.221 25.161H110.059C111.75 25.161 113.287 26.0815 113.902 27.6157L118.052 38.0483H97.9154ZM126.814 65.664C126.199 69.3461 122.663 72.4145 118.82 72.4145C114.978 72.4145 112.518 69.3461 113.287 65.664C113.902 61.9819 117.437 58.9135 121.28 58.9135C125.123 58.9135 127.428 61.9819 126.814 65.664Z" fill="white"/>
<path d="M83.1589 45.8727L90.6909 3.37525C90.9983 1.68763 89.6149 0 87.924 0H14.6028C11.9896 0 9.83765 2.14789 9.83765 4.75604C9.83765 7.36419 11.9896 9.51208 14.6028 9.51208H15.3713H22.5959C25.209 9.51208 27.361 11.66 27.361 14.2681C27.361 16.8763 25.209 19.0241 22.5959 19.0241H9.68394C7.07081 19.0241 4.91883 21.172 4.91883 23.7802C4.91883 26.3883 7.07081 28.5362 9.68394 28.5362H17.677C20.2902 28.5362 22.4422 30.6841 22.4422 33.2923C22.4422 35.9004 20.2902 38.0483 17.677 38.2017H4.76511C2.15199 38.2017 0 40.3496 0 42.9578C0 45.5659 2.15199 47.7138 4.76511 47.7138H80.2384C81.7755 48.3275 83.0052 47.2535 83.1589 45.8727Z" fill="white"/>
</svg>
