<svg width="99" height="99" viewBox="0 0 99 99" fill="none" xmlns="http://www.w3.org/2000/svg">
<path d="M35.1886 0.00370609C40.6489 -0.12411 46.4605 3.05324 50.4223 9.683C49.4482 11.9278 49.207 14.0396 49.5002 16.0869C49.5926 16.732 49.7539 17.3675 49.9428 18.0006L28.955 9.4254C28.1086 9.17534 27.8005 9.70318 27.369 10.1983C26.7452 12.4705 26.3481 14.6307 26.1149 16.6758C24.7627 14.1261 22.6815 12.363 21.2091 11.5601C23.6082 4.80669 29.2622 0.283629 35.1886 0.00370609ZM71.2256 7.36441C71.6195 7.74585 72.2926 7.79498 72.7379 7.47482C78.8338 3.11636 85.8781 3.71234 90.4798 7.43807C95.0815 11.1637 97.3609 18.0296 93.3937 26.944C93.2337 27.3097 93.2771 27.7566 93.5043 28.0849C96.3484 31.9994 97.0922 34.8073 96.5658 37.6539C96.0532 40.4254 94.1697 43.4171 91.3649 47.2964H56.914L63.2583 40.635C66.4654 40.6562 69.2825 40.8677 71.078 42.6592C71.5125 43.1025 72.3121 43.1112 72.7563 42.6781C73.2005 42.2445 73.2093 41.4466 72.7747 41.0035C70.7398 38.973 68.0719 38.5396 65.3976 38.4272L72.8484 30.6249C76.5483 30.5963 79.7785 30.8393 81.7009 32.649C82.1353 33.0928 82.9354 33.1019 83.3799 32.6682C83.8243 32.2344 83.8327 31.436 83.3976 30.9929C81.1096 28.7098 78.022 28.4263 75.0247 28.3799L82.2173 20.8351C82.703 20.3412 82.4774 19.482 81.9624 19.0696C81.3216 18.6655 81.056 18.9749 80.5206 19.2158L73.9181 26.098C73.479 23.1157 72.4261 20.0456 70.414 18.038C70.1421 17.7362 69.7064 17.5913 69.3074 17.67C68.4493 17.8253 68.0766 19.1038 68.7173 19.6942C70.4385 21.4116 71.603 25.1595 71.8525 28.2694L63.4058 37.0656C63.0609 33.795 62.0194 30.2721 59.791 28.0486C59.5191 27.7469 59.0834 27.6019 58.6845 27.6806C57.8263 27.8359 57.4536 29.1143 58.0943 29.7047C60.003 31.6093 61.2592 36.0173 61.3033 39.2738L53.6312 47.2969H47.25C47.9318 45.8097 48.3198 44.1773 48.3198 42.4388C48.3343 34.4508 50.6627 27.5201 54.0001 23.0801C54.2541 22.736 54.2984 22.2497 54.1107 21.8656C52.9479 19.5453 52.1246 17.5995 51.8607 15.7561C51.2645 10.1399 56.8719 5.69812 61.8197 4.64147C65.2419 3.99088 69.1316 5.36305 71.2255 7.36498L71.2256 7.36441ZM30.5042 12.5905L38.6559 15.9396C37.7809 16.0469 37.1067 16.7675 37.1067 17.6695C37.1067 18.6451 37.8993 19.436 38.8772 19.436C39.855 19.436 40.6477 18.6451 40.6477 17.6695C40.6477 17.2663 40.5067 16.8994 40.2788 16.6021L45.037 18.5159C44.526 18.8258 44.1887 19.3846 44.1887 20.0249C44.1887 21.0005 44.9813 21.7914 45.9592 21.7914C47.296 21.5786 47.7064 20.782 47.6928 19.62L51.1232 21.0186C51.4952 21.4983 51.5148 22.1139 51.6027 22.4907C51.2131 21.7249 50.42 21.2026 49.5003 21.2026C48.1965 21.2026 47.1396 22.2572 47.1396 23.558C47.1396 24.8589 48.1965 25.9134 49.5003 25.9134C49.5377 25.9134 49.5739 25.9146 49.6108 25.9134C48.6823 27.7888 47.881 29.8662 47.287 32.0964C46.2509 31.3819 45.114 30.459 43.8936 29.4098C45.0571 29.264 45.9592 28.2916 45.9592 27.0912C45.9592 25.7903 44.9023 24.7357 43.5985 24.7357C42.3197 24.7357 41.2772 25.7511 41.2378 27.0176C40.0814 25.8984 38.9207 24.7059 37.8075 23.4476C35.088 19.9403 32.1453 16.3103 30.5041 12.5905H30.5042ZM18.4427 13.069C22.0516 15.1273 24.3842 17.7737 25.8566 20.6137C25.826 25.5055 26.8207 29.857 28.2173 34.1207C26.2093 36.1247 24.8994 38.8323 24.7501 41.8494C23.3084 39.4252 20.6501 37.801 17.6312 37.801C13.082 37.801 9.36888 41.506 9.36888 46.045C9.36888 46.4706 9.41673 46.8879 9.47943 47.2964H4.46303C1.55234 39.974 1.64085 32.6873 4.31548 26.5391C6.96973 20.014 13.1752 15.3963 18.4426 13.069H18.4427ZM28.8444 14.7619C30.5178 18.1872 33.1544 21.7349 36.037 24.9933C39.646 29.0728 43.6099 32.5837 46.7338 34.5623C46.635 35.0685 46.5188 35.5885 46.4387 36.1081C44.3382 32.8385 40.6864 30.6611 36.5165 30.6611C34.1689 30.6611 31.9724 31.3532 30.1353 32.5381C28.4335 27.0515 27.6396 21.5481 28.8444 14.7619ZM41.828 20.0249C40.8502 20.0249 40.0575 20.8158 40.0575 21.7914C40.0575 22.7671 40.8502 23.558 41.828 23.558C42.8058 23.558 43.5985 22.7671 43.5985 21.7914C43.5985 20.8158 42.8058 20.0249 41.828 20.0249ZM36.5165 33.0165C41.7455 33.0165 45.9592 37.2209 45.9592 42.4383C45.9592 44.7559 45.3663 45.9907 44.5944 47.2964H28.4386C27.5809 45.8766 27.0739 44.2227 27.0739 42.4383C27.2361 36.6105 32.1272 33.1489 36.5165 33.0165ZM17.6312 40.1565C20.9046 40.1565 23.5329 42.779 23.5329 46.045C23.5329 46.4819 23.4745 46.8873 23.3853 47.2964H11.8771C11.7879 46.8873 11.7295 46.4819 11.7295 46.045C11.7295 42.779 14.3578 40.1565 17.6312 40.1565ZM0 49.6518H99.0003C98.9248 53.675 98.4476 57.6106 97.6724 61.3922H1.32788C0.553212 57.6062 0.0754995 53.6788 0 49.6518ZM1.84427 63.7475H97.156C95.2806 71.4006 92.0764 78.3479 87.9347 83.9895C81.1705 93.2037 72.0701 98.9173 62.5207 98.9319C54.2215 99.0227 44.7789 99.0227 36.5166 98.9319C26.9531 98.9319 17.8384 93.2476 11.0657 84.0264C6.91841 78.3798 3.71866 71.4243 1.84433 63.7475H1.84427Z" fill="white"/>
</svg>
