<svg width="73" height="126" viewBox="0 0 73 126" fill="none" xmlns="http://www.w3.org/2000/svg">
<path d="M72.9427 52.4569V48.1122V1.45795C72.9427 0.641496 72.3008 0 71.4839 0H1.45885C0.641896 0 0 0.641496 0 1.45795V48.1122V52.4569H72.9427ZM58.3542 16.0374C58.3542 15.221 58.9961 14.5795 59.813 14.5795C60.63 14.5795 61.2719 15.221 61.2719 16.0374V33.5328C61.2719 34.3492 60.63 34.9907 59.813 34.9907C58.9961 34.9907 58.3542 34.3492 58.3542 33.5328V16.0374Z" fill="white"/>
<path d="M0 53.944V118.094C0 118.91 0.641896 119.552 1.45885 119.552H5.83542V123.925C5.83542 124.742 6.47731 125.383 7.29427 125.383C8.11123 125.383 8.75313 124.742 8.75313 123.925V119.552H61.2719V123.925C61.2719 124.742 61.9138 125.383 62.7308 125.383C63.5477 125.383 64.1896 124.742 64.1896 123.925V119.552H71.4839C72.3008 119.552 72.9427 118.91 72.9427 118.094V53.944H0ZM61.2719 91.8506C61.2719 92.667 60.63 93.3085 59.813 93.3085C58.9961 93.3085 58.3542 92.667 58.3542 91.8506V74.3552C58.3542 73.5388 58.9961 72.8973 59.813 72.8973C60.63 72.8973 61.2719 73.5388 61.2719 74.3552V91.8506Z" fill="white"/>
</svg>
