<svg width="25" height="25" viewBox="0 0 25 25" fill="none" xmlns="http://www.w3.org/2000/svg">
<path d="M21.6152 0.0616455H3.17548C1.4402 0.0616455 0.102203 1.39964 0.102203 3.13492V21.5731C0.102203 23.3084 1.4402 24.6464 3.17548 24.6464H21.6136C23.3489 24.6464 24.6869 23.3084 24.6869 21.5731V3.13492C24.6884 1.39964 23.3489 0.0616455 21.6152 0.0616455ZM12.4136 7.52489C15.1398 7.52489 17.35 9.66659 17.35 12.3076C17.35 14.9486 15.1398 17.0903 12.4136 17.0903C9.68888 17.0903 7.47868 14.947 7.47868 12.3076C7.47868 9.66659 9.68888 7.52489 12.4136 7.52489ZM21.6152 20.8059C21.6152 21.3447 21.3853 21.5746 20.8465 21.5746H3.94418C3.40685 21.5746 3.17548 21.3447 3.17548 20.8059V10.0502L5.09038 10.4673C4.88489 11.1355 4.77377 11.8418 4.77377 12.5755C4.77377 16.661 8.19563 19.9778 12.4121 19.9778C16.6315 19.9778 20.0519 16.6625 20.0519 12.5755C20.0519 11.8418 19.9408 11.1355 19.7353 10.4673L21.6136 10.0502V20.8059H21.6152ZM21.6152 6.9769C21.6152 7.40159 21.2711 7.7456 20.8465 7.7456H17.7732C17.3485 7.7456 17.0045 7.40159 17.0045 6.9769V3.90362C17.0045 3.47894 17.3485 3.13492 17.7732 3.13492H20.8465C21.2711 3.13492 21.6152 3.47894 21.6152 3.90362V6.9769Z" fill="white"/>
</svg>
