<svg width="28" height="23" viewBox="0 0 28 23" fill="none" xmlns="http://www.w3.org/2000/svg">
<path d="M17.7432 0.526072C15.323 1.40741 13.7932 3.6785 13.9667 6.16422L14.0246 7.1232L13.0565 7.00599C9.53261 6.55542 6.45324 5.02868 3.83814 2.46381L2.55951 1.19126L2.23224 2.13045C1.53509 4.22497 1.98108 6.43822 3.43324 7.92691C4.20803 8.74888 4.03298 8.86609 2.69803 8.37747C2.23377 8.22069 1.82582 8.10348 1.78777 8.16284C1.65229 8.29984 2.11656 10.0808 2.48492 10.7871C2.98877 11.7674 4.01471 12.7248 5.13808 13.2941L6.08792 13.7447L4.96303 13.7614C3.87924 13.7614 3.83966 13.7812 3.95687 14.1937C4.3435 15.4663 5.87329 16.818 7.57814 17.4055L8.77913 17.8165L7.7334 18.4436C6.18382 19.3463 4.36329 19.8547 2.54277 19.8912C1.67056 19.911 0.953613 19.9886 0.953613 20.048C0.953613 20.2429 3.31756 21.3388 4.69056 21.7711C8.81567 23.0437 13.7156 22.4942 17.3947 20.322C20.0098 18.7755 22.6233 15.7007 23.8441 12.7233C24.5032 11.1387 25.1608 8.24047 25.1608 6.85073C25.1608 5.9496 25.2187 5.83239 26.3025 4.75621C26.9418 4.12907 27.5415 3.44409 27.6587 3.24925C27.8536 2.87632 27.8322 2.87632 26.8459 3.20967C25.2004 3.79724 24.9675 3.7196 25.7819 2.83826C26.3816 2.21112 27.0986 1.07558 27.0986 0.743745C27.0986 0.685902 26.8078 0.783321 26.479 0.958372C26.1304 1.15473 25.3557 1.44851 24.7742 1.62356L23.7285 1.95692L22.7801 1.30847C22.2565 0.956849 21.5228 0.564127 21.1347 0.446919C20.1452 0.172927 18.6352 0.212503 17.7432 0.526072Z" fill="white"/>
</svg>
